<svg xmlns="http://www.w3.org/2000/svg" xmlns:xlink="http://www.w3.org/1999/xlink" width="1024px" height="1024px" viewBox="0 0 1024 1024">
<path d="M904.594286 443.428571q35.437714 0 59.136 23.149714t23.698286 58.002286q0 55.442286-53.138286 74.276571l-98.304 33.718857 32 95.414857q3.986286 11.995429 3.986286 26.843429 0 33.718857-23.990857 58.294857t-57.709714 24.576q-26.843429 0-48.859429-15.433143t-30.573714-41.142857l-31.414857-94.281143-177.152 60.562286 31.414857 93.696q4.571429 13.714286 4.571429 26.843429 0 33.718857-23.990857 58.294857t-58.294857 24.576q-26.843429 0-48.566857-15.433143t-30.281143-41.142857l-31.414857-93.147429-87.442286 30.281143q-16.566857 5.156571-28.562286 5.156571-34.852571 0-58.002286-22.857143t-23.149714-57.709714q0-26.843429 15.725714-48.566857t40.850286-30.281143l89.161143-30.281143-60.013714-178.870857-89.161143 30.866286q-14.848 4.571429-27.428571 4.571429-34.304 0-57.709714-23.149714t-23.442286-57.417143q0-26.843429 15.725714-48.566857t40.850286-30.281143l89.709714-30.281143-30.281143-90.843429q-4.571429-13.714286-4.571429-26.843429 0-34.304 23.990857-58.587429t58.294857-24.283429q26.843429 0 48.566857 15.433143t30.281143 41.142857l30.866286 91.428571 177.152-60.013714-30.866286-91.428571q-4.571429-13.714286-4.571429-26.843429 0-33.718857 24.283429-58.294857t58.002286-24.576q26.843429 0 48.859429 15.725714t30.573714 40.850286l30.281143 92.013714 92.562286-31.414857q11.995429-3.437714 24.576-3.437714 34.304 0 58.587429 22.564571t24.283429 56.283429q0 25.709714-17.152 46.555429t-42.276571 29.44l-89.709714 30.866286 60.013714 180.553143 93.696-32q13.714286-4.571429 26.294857-4.571429zM450.889143 593.152l177.152-60.013714-60.013714-180.004571-177.152 61.147429z" /></svg>